# xmcd
#
# Track frame offsets:
# 150
# 6621
# 17188
# 28403
# 40345
# 48410
# 57678
# 69489
# 73736
# 76660
# 87649
# 114251
# 138108
# 155381
#
# Disc length: 2400 seconds
#
# Revision: 0
# Processed by: cddbd v1.4PL0 Copyright (c) Steve Scherf et al.
# Submitted via: MacMP3 Pro 5.0 (http://mp3.act2.co.jp/)
#
DISCID=c2095e0e
DTITLE=! Ring Shout! - Demo CD
DYEAR=1900
DGENRE=
TTITLE0=Amazing Grace
TTITLE1=Holy holy holy
TTITLE2=You are God
TTITLE3=The theme of ≈gTitanic≈h
TTITLE4=My Life is in Your Hands
TTITLE5=Jesus We Reverence Your Name
TTITLE6=I Will Sing Hallelujah
TTITLE7=This Little Light of Mine
TTITLE8=Ode to Joy
TTITLE9=Ob-la-di Ob-la-da
TTITLE10=Holy holy holy
TTITLE11=Jesus is the Answer
TTITLE12=The Rose
TTITLE13=The Lord is Strong and Mighty
EXTD=
EXTT0=
EXTT1=
EXTT2=
EXTT3=
EXTT4=
EXTT5=
EXTT6=
EXTT7=
EXTT8=
EXTT9=
EXTT10=
EXTT11=
EXTT12=
EXTT13=
PLAYORDER=
